<?xml version="1.0" standalone="no"?>
<!DOCTYPE svg PUBLIC "-//W3C//DTD SVG 1.1//EN" "http://www.w3.org/Graphics/SVG/1.1/DTD/svg11.dtd" >
<svg xmlns="http://www.w3.org/2000/svg">
<metadata></metadata>
<defs>
<font id="panton_lightitalic" horiz-adv-x="1122" >
<font-face units-per-em="2048" ascent="1526" descent="-522" />
<missing-glyph horiz-adv-x="505" />
<glyph horiz-adv-x="0" />
<glyph unicode="&#xd;" horiz-adv-x="681" />
<glyph unicode=" "  horiz-adv-x="505" />
<glyph unicode="&#x09;" horiz-adv-x="505" />
<glyph unicode="&#xa0;" horiz-adv-x="505" />
<glyph unicode="!" horiz-adv-x="387" d="M37 45l2 12q6 32 20.5 44t46.5 12h11q31 0 40.5 -12t4.5 -44l-2 -12q-9 -55 -68 -55h-10q-31 0 -40 11.5t-5 43.5zM115 332l190 1159q3 25 29 25h47q24 0 18 -25l-215 -1159q-7 -23 -28 -23h-23q-25 0 -18 23z" />
<glyph unicode="&#x22;" horiz-adv-x="546" d="M205 1012l76 420q3 22 24 22h39q24 0 21 -22l-93 -420q-3 -21 -26 -21h-23q-13 0 -16.5 4t-1.5 17zM403 1012l74 420q3 22 25 22h41q14 0 17.5 -4.5t2.5 -17.5l-92 -420q-6 -21 -27 -21h-24q-20 0 -17 21z" />
<glyph unicode="#" horiz-adv-x="1370" d="M57 436l19 37q10 23 35 23h235l182 383h-237q-21 0 -12 22l18 37q10 23 35 23h235l162 339q9 25 35 25h41q21 0 12 -25l-162 -339h359l162 339q16 25 34 25h41q29 0 13 -25l-162 -339h239q24 0 15 -25l-17 -37q-11 -20 -36 -20h-240l-182 -383h239q26 0 17 -25l-21 -37 q-9 -20 -33 -20h-239l-185 -389q-16 -25 -36 -25h-41q-22 0 -13 25l185 389h-359l-184 -389q-9 -25 -35 -25h-41q-28 0 -12 25l184 389h-235q-24 0 -15 22zM434 496h359l182 383h-359z" />
<glyph unicode="$" horiz-adv-x="1210" d="M55 365q-6 28 23 38l39 13q13 4 22 -0.5t11 -16.5q40 -160 123 -231.5t249 -71.5q406 0 461 307q34 180 -125 240q-74 24 -233 41q-113 13 -178 29.5t-134 52.5q-144 73 -106 291q64 374 500 389l26 143q6 25 29 25h39q23 0 20 -25l-26 -143q110 -8 185 -45.5 t121.5 -100.5t84.5 -165q6 -28 -21 -37l-37 -13q-22 -11 -32 11q-35 94 -78 149t-115.5 84t-181.5 29q-369 0 -422 -311q-9 -102 21.5 -155.5t113.5 -76.5q58 -18 103 -24q41 -6 120 -15q88 -8 142 -18.5t119 -34.5q68 -27 102 -64q38 -41 54.5 -109.5t0.5 -154.5 q-65 -367 -532 -385l-27 -145q-3 -25 -29 -25h-38q-24 0 -21 25l27 145q-174 10 -267.5 97t-132.5 258z" />
<glyph unicode="%" horiz-adv-x="1650" d="M174 1038l27 152q25 141 119.5 218t246.5 77q151 0 220 -81.5t44 -223.5l-26 -152q-25 -140 -119.5 -216.5t-245.5 -76.5q-152 0 -221.5 80.5t-44.5 222.5zM180 27l1282 1405q22 22 51 22h37q30 0 9 -27l-1283 -1404q-23 -23 -55 -23h-33q-35 0 -8 27zM252 1036 q-20 -109 31 -168t168 -59q116 0 188 59t92 168l25 146q20 109 -32 169t-169 60q-115 0 -187.5 -60t-91.5 -169zM905 274l27 152q25 142 118 217.5t246 75.5q152 0 222 -81.5t45 -223.5l-27 -152q-25 -140 -120.5 -216.5t-248.5 -76.5q-151 0 -219 81t-43 224zM981 270 q-19 -109 32.5 -168t166.5 -59q117 0 189 59t91 168l25 146q20 109 -31.5 169t-167.5 60q-115 0 -187.5 -60t-92.5 -169z" />
<glyph unicode="&#x26;" horiz-adv-x="1327" d="M76 356q28 154 126 248.5t281 167.5q-169 199 -139 377q27 140 139 237q117 97 279 97q153 0 235 -101q84 -103 60 -239q-27 -142 -121 -221q-96 -84 -301 -166l-21 -11l349 -403l176 143q17 15 32 0l27 -30q9 -16 -6 -31l-180 -145l221 -254q22 -25 -14 -25h-56 q-21 0 -37 16l-180 209q-192 -155 -311 -205q-116 -49 -242 -49q-162 0 -254 111q-90 109 -63 274zM166 352q-21 -126 49 -211q71 -86 195 -86q105 0 208 47q97 44 279 185l-365 422q-173 -70 -257.5 -148t-108.5 -209zM428 1143q-11 -61 7 -125.5t48 -106.5q23 -32 80 -102 l45 20q28 11 65.5 27t43.5 18q31 14 88 46q47 24 80 57q68 76 86 170q18 105 -45 180q-66 78 -178 78q-121 0 -211 -78q-92 -79 -109 -184z" />
<glyph unicode="'" horiz-adv-x="348" d="M205 1012l76 420q3 22 24 22h39q24 0 21 -22l-93 -420q-3 -21 -26 -21h-23q-13 0 -16.5 4t-1.5 17z" />
<glyph unicode="(" horiz-adv-x="489" d="M84 203l186 1048q32 177 119 283.5t248 173.5q23 13 29 -12l10 -37q3 -20 -19 -33q-134 -58 -204.5 -144t-94.5 -231l-188 -1056q-26 -145 15.5 -231.5t154.5 -143.5q19 -16 6 -33l-22 -29q-18 -21 -33 -12q-136 67 -186.5 174t-20.5 283z" />
<glyph unicode=")" horiz-adv-x="489" d="M-106 -203q-9 19 18 31q133 59 204 145t95 230l188 1059q24 147 -16 232.5t-154 141.5q-21 12 -8 31l25 29q15 21 33 12q136 -67 185 -173.5t19 -283.5l-186 -1048q-30 -177 -117 -284.5t-246 -174.5q-21 -9 -30 12z" />
<glyph unicode="*" horiz-adv-x="790" d="M227 1158q-3 5 4 13l15 31q10 16 24 8l203 -82l31 234q0 16 18 16h31q18 0 12 -16l-53 -234l236 82q16 6 22 -10l2 -29q3 -19 -16 -22l-238 -59l117 -185q9 -12 -6 -24l-31 -19q-17 -10 -23 6l-94 197l-164 -197q-12 -18 -24 -6l-23 21q-14 8 2 24l181 183l-211 61 q-12 2 -15 7z" />
<glyph unicode="+" horiz-adv-x="1179" d="M115 653l6 33q6 25 31 25h415l74 415q3 27 29 27h32q27 0 21 -27l-72 -415h416q26 0 20 -25l-6 -33q-3 -24 -30 -24h-416l-72 -416q-6 -27 -31 -27h-32q-27 0 -21 27l72 416h-416q-23 0 -20 24z" />
<glyph unicode="," horiz-adv-x="323" d="M-80 -229l119 321q9 31 39 31h35q37 0 22 -31l-149 -317q-10 -23 -31 -23h-18q-20 0 -17 19z" />
<glyph unicode="-" horiz-adv-x="872" d="M117 526l6 35q6 25 31 25h559q26 0 20 -25l-6 -35q-3 -24 -29 -24h-559q-25 0 -22 24z" />
<glyph unicode="." horiz-adv-x="331" d="M23 45l4 12q4 32 18.5 44t46.5 12h10q32 0 41.5 -12t3.5 -44l-2 -12q-9 -55 -67 -55h-10q-31 0 -41 11.5t-4 43.5z" />
<glyph unicode="/" horiz-adv-x="815" d="M-41 -100l840 1532q13 22 37 22h43q25 0 12 -22l-840 -1532q-10 -23 -37 -23h-43q-22 0 -12 23z" />
<glyph unicode="0" horiz-adv-x="1271" d="M131 444l102 580q38 218 192.5 338.5t397.5 120.5q238 0 353 -129t77 -346l-102 -580q-37 -217 -191.5 -337t-396.5 -120t-355.5 127t-76.5 346zM223 436q-31 -179 60.5 -278t291.5 -99q198 0 325.5 99.5t158.5 277.5l102 582q31 178 -61 277.5t-289 99.5 q-198 0 -326 -100t-159 -277z" />
<glyph unicode="1" horiz-adv-x="849" d="M156 1133q-9 18 16 32l547 279q23 10 39 10h37q25 0 22 -27l-248 -1400q-6 -27 -30 -27h-43q-27 0 -21 27l232 1312l-500 -252q-27 -15 -37 9z" />
<glyph unicode="2" horiz-adv-x="1191" d="M14 27l25 147q29 123 87 198.5t163 133.5q63 36 125 61q17 7 65 24.5t78 29.5q229 81 313 133q175 107 209 297q26 160 -55 252t-248 92q-159 0 -272.5 -67t-202.5 -210q-16 -22 -35 -14l-41 14q-17 11 -8 33q101 169 239.5 250.5t334.5 81.5q212 0 315 -118t70 -318 q-20 -112 -89 -220q-35 -55 -163 -143q-31 -19 -111 -55q-20 -9 -115 -47q-62 -25 -131 -50q-40 -14 -118 -43q-28 -10 -103 -47q-61 -33 -96 -63q-91 -87 -109 -189l-16 -102h850q26 0 20 -25l-6 -36q-6 -27 -31 -27h-921q-29 0 -23 27z" />
<glyph unicode="3" horiz-adv-x="1212" d="M61 336q-6 23 23 33l39 14q25 9 31 -18q21 -165 102 -234q81 -72 276 -72q388 0 447 336q25 144 -40 225.5t-210 81.5h-342q-26 0 -20 25l6 35q3 26 30 26h330q132 0 217 79t109 206q26 154 -50.5 238t-242.5 84q-186 0 -289 -68q-102 -65 -180 -225q-14 -24 -37 -15 l-35 13q-24 9 -12 35q88 183 220 265.5t351 82.5q207 0 304.5 -109.5t62.5 -300.5q-21 -116 -86 -200.5t-168 -120.5q226 -86 176 -363q-73 -418 -551 -418q-225 0 -332.5 88.5t-128.5 276.5z" />
<glyph unicode="4" horiz-adv-x="1228" d="M31 451l6 26q3 22 14 33l926 948q19 19 41 19h41q28 0 22 -29l-166 -938h215q27 0 21 -27l-6 -32q-3 -27 -29 -27h-215l-70 -397q-6 -27 -30 -27h-39q-27 0 -21 27l70 397h-758q-25 0 -22 27zM156 510h669l150 833z" />
<glyph unicode="5" horiz-adv-x="1196" d="M33 289q-3 23 20 33l47 14q22 13 29 -17q47 -262 387 -262q181 0 301 100t150 263q31 167 -54 259.5t-266 92.5h-436q-36 0 -27 35l168 602q12 45 58 45h757q26 0 23 -27l-8 -36q-3 -25 -29 -25h-721l-139 -506h369q226 0 333 -120t70 -328q-35 -194 -180 -318 q-146 -125 -381 -125q-409 0 -471 320z" />
<glyph unicode="6" horiz-adv-x="1259" d="M143 485l86 494q43 247 198 375.5t409 128.5q378 0 442 -309q3 -22 -23 -31l-41 -15q-25 -12 -28 17q-53 250 -367 250q-209 0 -334.5 -106.5t-160.5 -313.5l-39 -215q197 78 456 78q496 0 420 -445q-37 -204 -189.5 -313t-398.5 -109q-250 0 -361.5 136.5t-68.5 377.5z M238 479q-37 -202 52.5 -311t295.5 -109q201 0 326.5 89t156.5 255q29 178 -54.5 262.5t-293.5 84.5q-229 0 -453 -82z" />
<glyph unicode="7" horiz-adv-x="1038" d="M178 1391l8 36q6 27 31 27h909q29 0 23 -27l-4 -24q-7 -21 -15 -37l-827 -1343q-16 -23 -51 -23h-43q-23 0 -8 27l829 1339h-829q-26 0 -23 25z" />
<glyph unicode="8" horiz-adv-x="1245" d="M86 336q17 95 69.5 172t129.5 125q118 76 247 112q-155 57 -222 144.5t-42 232.5q30 175 171.5 268t369.5 93q232 0 338.5 -96t75.5 -275q-53 -277 -392 -371q80 -27 133 -55.5t99 -71.5q93 -87 65 -266q-67 -377 -585 -377q-270 0 -380 92t-77 273zM182 344 q-25 -144 64.5 -217.5t310.5 -73.5q423 0 475 301q30 174 -114 256q-60 32 -246 86q-33 11 -43 13q-80 -16 -166 -52q-68 -26 -121 -63q-55 -41 -101 -108.5t-59 -141.5zM360 1114q-10 -99 19 -156.5t108 -97.5q74 -34 97 -41q54 -20 116 -37l29 -8q358 80 404 340 q25 140 -62.5 213.5t-277.5 73.5q-181 0 -294 -74t-139 -213z" />
<glyph unicode="9" horiz-adv-x="1261" d="M66 281q-3 21 22 30l41 15q25 9 31 -17q53 -250 364 -250q209 0 335 106.5t161 313.5l39 215q-191 -78 -457 -78q-494 0 -418 445q35 204 187.5 313t398.5 109q250 0 361.5 -136.5t68.5 -377.5l-86 -494q-43 -247 -196.5 -375.5t-407.5 -128.5q-380 0 -444 310zM274 1051 q-29 -177 56 -261.5t295 -84.5q242 0 450 81l33 189q35 202 -53.5 311t-294.5 109q-202 0 -328.5 -89.5t-157.5 -254.5z" />
<glyph unicode=":" horiz-adv-x="405" d="M82 215l4 12q5 31 19.5 43.5t46.5 12.5h10q32 0 41.5 -12.5t3.5 -43.5l-2 -12q-6 -32 -20.5 -43.5t-47.5 -11.5h-10q-31 0 -41 11.5t-4 43.5zM166 750l2 12q9 55 68 55h10q30 0 40 -12t5 -43l-2 -12q-6 -32 -21 -44t-47 -12h-10q-33 0 -42.5 12t-2.5 44z" />
<glyph unicode=";" horiz-adv-x="409" d="M-45 -229l135 321q9 31 41 31h35q39 0 20 -31l-168 -317q-13 -23 -32 -23h-17q-20 0 -14 19zM178 920l2 10q9 57 68 57h10q31 0 40.5 -12.5t4.5 -44.5l-4 -10q-5 -32 -19.5 -45t-46.5 -13h-10q-32 0 -42 13t-3 45z" />
<glyph unicode="&#x3c;" horiz-adv-x="1030" d="M88 655l4 25q6 26 31 35l838 413q17 8 24.5 3.5t3.5 -21.5l-10 -39q-6 -31 -33 -43l-739 -360l-2 -4l612 -359q24 -15 21 -45l-7 -35q-6 -33 -32 -18l-693 414q-21 12 -18 34z" />
<glyph unicode="=" horiz-adv-x="1241" d="M111 451l6 32q3 27 28 27h916q25 0 22 -27l-6 -32q-6 -27 -30 -27h-916q-26 0 -20 27zM182 854l6 35q3 26 29 26h916q25 0 22 -26l-6 -35q-6 -25 -31 -25h-915q-27 0 -21 25z" />
<glyph unicode="&#x3e;" horiz-adv-x="1028" d="M63 225l11 41q6 31 32 45l740 359l2 4l-612 360q-18 8 -21.5 15.5t0.5 27.5l6 33q8 32 33 20l692 -415q22 -10 19 -35l-4 -25q-3 -22 -31 -34l-838 -414q-19 -8 -24.5 -4.5t-4.5 22.5z" />
<glyph unicode="?" horiz-adv-x="1136" d="M180 1180q188 336 563 336q219 0 334 -121q112 -124 78 -303q-24 -140 -106 -256q-29 -39 -88 -86q-65 -52 -87 -64q-9 -6 -94 -57q-45 -28 -118 -76q-41 -31 -87 -94q-46 -64 -61 -146q-6 -26 -29 -26h-30q-26 0 -23 26q17 93 67 171.5t105 119.5q50 37 133 88 q77 46 111 70t88 74q97 87 125 256q27 151 -60 245.5t-266 94.5q-317 0 -477 -283q-16 -26 -35 -16l-33 14q-23 10 -10 33zM367 45l2 12q4 32 18.5 44t46.5 12h10q32 0 41.5 -12t3.5 -44v-12q-9 -55 -67 -55h-10q-32 0 -41.5 11.5t-3.5 43.5z" />
<glyph unicode="@" horiz-adv-x="1843" d="M156 526l24 142q65 380 320 598q254 217 637 217q389 0 565 -221q173 -218 108 -594l-24 -142q-38 -207 -160 -317q-125 -113 -274 -113q-104 0 -113 88q-180 -82 -397 -82q-350 0 -291 332l57 324q27 162 130 249t278 87q206 0 348 -62q37 -18 47.5 -37t3.5 -61 l-121 -688q-15 -80 70 -80q124 0 221 94t127 266l25 144q62 353 -96.5 549t-516.5 196q-348 0 -577 -198q-231 -200 -293 -547l-25 -144q-61 -350 99 -539.5t512 -189.5q205 0 415 51l33 7q10 1 13.5 -1t1.5 -8l-7 -39q-3 -16 -20 -22q-219 -55 -449 -55q-386 0 -562 208 t-109 588zM629 436q-47 -262 233 -262q224 0 357 80l114 659q9 42 -30 60q-112 47 -291 47q-280 0 -326 -264z" />
<glyph unicode="A" horiz-adv-x="1290" d="M-61 25l815 1415q15 24 39 24h41q24 0 30 -24l318 -1415q3 -25 -23 -25h-35q-38 0 -41 23l-102 452h-680l-260 -452q-13 -23 -51 -23h-37q-21 0 -21 10q0 6 7 15zM344 555h625l-164 727q-4 36 -4 88h-4q0 -1 -4.5 -15t-13 -35.5t-15.5 -37.5z" />
<glyph unicode="B" horiz-adv-x="1310" d="M72 27l247 1400q3 27 29 27h580q184 0 268 -97q62 -71 62 -185q0 -42 -9 -89q-46 -258 -270 -331v-4q119 -29 172 -128q36 -66 35 -152q0 -42 -8 -89q-35 -183 -160 -281t-318 -98h-608q-21 0 -21 18q0 4 1 9zM176 88h539q150 0 244 79t120 228q7 40 7 75q0 91 -48 148 q-68 80 -217 80h-536zM299 784h504q144 0 234 74t114 219q8 41 8 77q0 86 -45 138q-63 74 -209 74h-504z" />
<glyph unicode="C" horiz-adv-x="1294" d="M141 481l88 502q43 239 207 369.5t428 130.5q228 0 340 -88t133 -271q1 -4 1 -8q0 -17 -21 -24l-35 -13q-28 -9 -31 17q-21 157 -112.5 228t-284.5 71q-221 0 -357.5 -108t-172.5 -306l-86 -502q-9 -53 -9 -99q-1 -130 71 -210q98 -110 318 -109q195 0 313.5 73.5 t194.5 234.5q16 25 37 16l39 -14q21 -9 10 -35q-90 -189 -230 -277t-372 -88q-262 -1 -386 135q-93 102 -93 262q0 53 10 113z" />
<glyph unicode="D" horiz-adv-x="1323" d="M72 27l247 1400q3 27 29 27h420q280 0 410 -146q97 -109 98 -279q0 -58 -12 -124l-66 -373q-44 -253 -223 -392.5t-461 -139.5h-422q-21 0 -21 18q0 4 1 9zM176 88h352q237 0 388.5 118.5t189.5 334.5l65 372q10 56 10 106q0 141 -80 229q-108 118 -347 118h-353z" />
<glyph unicode="E" horiz-adv-x="1165" d="M72 27l247 1400q3 27 29 27h838q21 0 21 -18q0 -4 -1 -9l-8 -36q-3 -25 -29 -25h-768l-102 -586h678q28 0 22 -24l-8 -37q-6 -27 -30 -27h-678l-107 -604h797q26 0 20 -25l-6 -36q-6 -27 -31 -27h-864q-21 0 -21 18q0 4 1 9z" />
<glyph unicode="F" horiz-adv-x="1142" d="M72 27l247 1400q3 27 29 27h838q21 0 21 -18q0 -4 -1 -9l-8 -36q-3 -25 -29 -25h-768l-106 -606h668q26 0 20 -27l-6 -37q-3 -24 -31 -24h-667l-113 -645q-6 -27 -31 -27h-43q-21 0 -21 18q0 4 1 9z" />
<glyph unicode="G" horiz-adv-x="1333" d="M143 483l88 500q43 240 207 370t430 130q225 0 338.5 -88.5t134.5 -268.5q1 -5 1 -9q0 -18 -21 -25l-39 -13q-24 -9 -31 17q-19 157 -110.5 228t-284.5 71q-223 0 -358.5 -107.5t-171.5 -306.5l-88 -502q-9 -53 -9 -100q0 -131 72 -211q98 -109 322 -109q218 0 357 108 t171 298l31 178h-439q-26 0 -20 27l6 37q6 26 31 26h504q28 0 22 -28l-43 -246q-42 -231 -206.5 -359.5t-426.5 -128.5q-264 0 -387 137q-91 101 -91 258q0 55 11 117z" />
<glyph unicode="H" horiz-adv-x="1394" d="M72 27l247 1400q3 27 29 27h43q26 0 23 -27l-115 -647h864l115 647q6 27 29 27h45q21 0 21 -18q0 -4 -1 -9l-248 -1400q-3 -27 -28 -27h-45q-27 0 -21 27l117 665h-864l-117 -665q-6 -27 -31 -27h-43q-21 0 -21 18q0 4 1 9z" />
<glyph unicode="I" horiz-adv-x="434" d="M72 27l247 1400q3 27 29 27h43q23 0 23 -22v-5l-248 -1400q-6 -27 -31 -27h-43q-21 0 -21 18q0 4 1 9z" />
<glyph unicode="J" horiz-adv-x="1159" d="M6 373q-1 5 -1 9q0 19 20 26l41 12q27 9 30 -17q2 -173 80.5 -258.5t247.5 -85.5q186 0 304.5 101t150.5 284l174 986q6 24 28 24h45q24 0 24 -16q0 -4 -1 -8l-176 -998q-38 -222 -182 -342.5t-375 -120.5q-404 0 -410 404z" />
<glyph unicode="K" horiz-adv-x="1226" d="M72 27l247 1400q3 27 29 27h43q26 0 23 -27l-115 -647h254q41 0 51 -2l598 654q19 22 55 22h48q20 0 20 -9q0 -7 -12 -18l-617 -669q88 -20 139 -72t83 -149l169 -510q9 -27 -20 -27h-39q-35 0 -45 23l-156 477q-36 108 -95 151t-181 43h-268l-117 -667q-6 -27 -31 -27 h-43q-21 0 -21 18q0 4 1 9z" />
<glyph unicode="L" horiz-adv-x="1042" d="M72 27l247 1400q3 27 29 27h43q26 0 23 -27l-238 -1339h746q21 0 21 -17q0 -4 -1 -8l-6 -36q-6 -27 -31 -27h-813q-21 0 -21 18q0 4 1 9z" />
<glyph unicode="M" horiz-adv-x="1632" d="M72 27l247 1400q3 27 29 27h31q26 0 35 -22l379 -969l714 967q15 24 41 24h41q23 0 23 -22v-5l-248 -1400q-6 -27 -31 -27h-41q-26 0 -20 27l168 940q28 169 73 342h-4q-94 -144 -204 -293l-480 -647q-15 -21 -37 -21h-22q-25 0 -31 21l-256 655q-48 125 -96 285h-4 q-13 -131 -49 -342l-166 -940q-6 -27 -31 -27h-41q-21 0 -21 18q0 4 1 9z" />
<glyph unicode="N" horiz-adv-x="1411" d="M72 27l247 1400q3 27 29 27h35q21 0 29 -14l528 -1010q17 -31 78 -164q12 -27 26 -59t20.5 -47.5t10.5 -22.5h6q7 38 21 162q19 159 28 207l164 924q6 24 31 24h41q24 0 24 -19q0 -4 -1 -8l-248 -1400q-6 -27 -31 -27h-41q-21 0 -27 16l-540 1037q-29 60 -62 143 q-45 105 -55 123h-6q-7 -50 -21 -156q-16 -123 -24 -182l-170 -954q-6 -27 -31 -27h-41q-21 0 -21 18q0 4 1 9z" />
<glyph unicode="O" horiz-adv-x="1357" d="M145 485l91 500q41 239 205 368.5t431 129.5q262 -1 385 -139q91 -103 91 -260q0 -55 -11 -117l-88 -500q-41 -238 -205 -367t-428 -129q-264 -1 -389 137q-93 102 -93 261q0 55 11 116zM240 477q-9 -52 -9 -97q0 -130 74 -212q100 -110 322 -109q219 0 356 109.5 t172 308.5l88 500q9 52 9 98q0 131 -73 211q-99 110 -319 109q-222 0 -358.5 -108t-171.5 -310z" />
<glyph unicode="P" horiz-adv-x="1265" d="M72 27l247 1400q3 27 29 27h551q209 0 310 -125q73 -91 74 -226q0 -51 -11 -108q-38 -206 -177.5 -318t-351.5 -112h-483l-94 -538q-6 -27 -31 -27h-43q-21 0 -21 18q0 4 1 9zM276 653h474q170 0 283.5 94.5t142.5 260.5q9 46 9 87q0 106 -59 175q-81 96 -249 96h-476z " />
<glyph unicode="Q" horiz-adv-x="1380" d="M145 485l91 500q41 239 205 368.5t431 129.5q262 0 385 -139q91 -102 91 -260q0 -55 -11 -117l-88 -500q-40 -222 -186 -350l115 -174q14 -20 -9 -37l-32 -23q-10 -9 -19 -9q-10 0 -18 11l-119 178q-151 -92 -365 -92q-264 0 -389 137q-93 103 -93 261q0 55 11 116z M240 477q-9 -52 -9 -97q0 -130 74 -212q100 -109 322 -109q219 0 356 109.5t172 308.5l88 500q9 52 9 98q0 130 -73 211q-99 109 -319 109q-222 0 -358.5 -108t-171.5 -310z" />
<glyph unicode="R" horiz-adv-x="1306" d="M72 27l247 1400q3 27 29 27h588q195 0 286 -112q66 -81 66 -204q0 -48 -10 -102q-31 -172 -143 -272.5t-285 -114.5q93 -43 139 -168l150 -454q12 -27 -19 -27h-41q-37 0 -47 23l-137 421q-36 108 -96.5 151.5t-182.5 43.5h-342l-108 -612q-6 -27 -31 -27h-43 q-21 0 -21 18q0 4 1 9zM289 727h510q155 0 256 82q100 81 127 235q8 43 8 81q0 98 -51 157q-72 84 -228 84h-510z" />
<glyph unicode="S" horiz-adv-x="1257" d="M37 330q-1 5 -1 10q0 20 21 27l43 14q22 9 31 -16q38 -157 137.5 -230.5t272.5 -73.5q442 0 501 320q3 28 3 53q-1 69 -25 113q-34 59 -119 90q-17 6 -32.5 11t-33 9t-28.5 6.5t-33 5.5t-31.5 4.5t-39 5t-41.5 5.5q-176 21 -285 70q-71 30 -111 73q-44 45 -62 117 q-10 38 -9 79q0 38 8 81q32 184 181 281.5t396 97.5q191 0 301.5 -78.5t161.5 -235.5q2 -6 2 -11q0 -15 -20 -21l-37 -19q-27 -9 -33 12q-44 133 -136 198t-253 65q-202 0 -323 -76.5t-146 -222.5q-7 -34 -7 -64q0 -120 109 -176q63 -33 130.5 -50t168.5 -28q96 -12 155 -25 t120 -40q60 -28 104 -72q66 -77 66 -189q0 -39 -8 -83q-71 -396 -603 -396q-213 0 -333.5 87.5t-161.5 271.5z" />
<glyph unicode="T" horiz-adv-x="1083" d="M160 1391l8 36q3 27 29 27h985q22 0 22 -22v-5l-8 -36q-3 -25 -29 -25h-446l-236 -1339q-6 -27 -30 -27h-43q-27 0 -21 27l236 1339h-445q-22 0 -22 20v5z" />
<glyph unicode="U" horiz-adv-x="1394" d="M180 502l164 925q6 27 31 27h43q25 0 22 -27l-168 -935q-10 -57 -10 -107q0 -131 68 -213q94 -114 313 -115q216 0 349.5 114.5t170.5 320.5l166 935q3 27 29 27h43q23 0 23 -18q0 -4 -1 -9l-168 -946q-43 -247 -202.5 -379.5t-421.5 -132.5q-261 0 -377 142 q-85 104 -86 265q0 59 12 126z" />
<glyph unicode="V" horiz-adv-x="1251" d="M174 1430q-1 4 -1 8q0 16 22 16h38q38 0 41 -22l244 -1178q4 -16 13.5 -76t9.5 -61h4q6 10 67 137l664 1178q13 22 45 22h43q19 0 19 -9q0 -6 -7 -15l-794 -1405q-16 -25 -39 -25h-39q-28 0 -31 23z" />
<glyph unicode="W" horiz-adv-x="1779" d="M193 1430v5q0 19 20 19h49q30 0 33 -22l96 -1102q3 -34 6 -111v-84h6q40 112 78 193l496 1071q9 24 39 24h39q30 0 30 -24l115 -1075q8 -116 10 -189h4q3 6 7.5 17.5t12.5 32t15 38.5q9 24 21 57.5t16 43.5l492 1108q9 22 37 22h47q17 0 17 -12q0 -5 -3 -12l-627 -1405 q-9 -25 -39 -25h-43q-27 0 -30 23l-113 1079q-5 63 -10 186h-6q-13 -43 -76 -186l-498 -1077q-9 -25 -39 -25h-41q-30 0 -30 23z" />
<glyph unicode="X" horiz-adv-x="1241" d="M-45 31l651 708l-389 691q-5 8 0 16t16 8h52q32 0 45 -22l348 -617l565 617q22 22 49 22h58q18 0 18 -9q0 -6 -8 -15l-635 -693l401 -706q11 -12 6 -21.5t-22 -9.5h-49q-35 0 -45 23l-363 641l-581 -641q-23 -23 -54 -23h-57q-16 0 -16 10q0 7 10 21z" />
<glyph unicode="Y" horiz-adv-x="1261" d="M186 1427q-3 8 -3 13q0 14 22 14h49q38 0 47 -22l354 -736l617 736q16 22 51 22h53q18 0 18 -11q0 -7 -5 -16l-703 -829l-100 -571q-6 -27 -31 -27h-43q-26 0 -20 27l100 573z" />
<glyph unicode="Z" d="M-41 27l6 34q4 22 17 35l1085 1270h-838q-26 0 -20 25l6 36q6 27 31 27h928q23 0 23 -18q0 -4 -1 -9l-6 -32q-3 -20 -16 -33l-1086 -1272h870q30 0 21 -27l-6 -36q-6 -27 -31 -27h-962q-22 0 -22 18q0 4 1 9z" />
<glyph unicode="[" horiz-adv-x="520" d="M-12 -274l354 2003q3 24 27 24h309q14 0 18 -4.5t0 -17.5l-4 -35q-3 -23 -26 -23h-248l-334 -1890h248q13 0 16.5 -5.5t1.5 -19.5l-6 -34q-3 -23 -29 -23h-309q-13 0 -16.5 5.5t-1.5 19.5z" />
<glyph unicode="\" horiz-adv-x="798" d="M217 1432q-3 22 21 22h41q27 0 30 -22l297 -1532q3 -23 -20 -23h-43q-19 0 -29 23z" />
<glyph unicode="]" horiz-adv-x="520" d="M-133 -276l6 34q3 25 29 25h245l334 1890h-245q-14 0 -18 5t-3 18l6 35q3 22 27 22h309q13 0 16.5 -5t1.5 -19l-352 -2003q-3 -25 -28 -25h-310q-13 0 -16.5 4.5t-1.5 18.5z" />
<glyph unicode="^" horiz-adv-x="1210" d="M236 1096l536 542q21 21 39 21h25q16 0 28 -21l355 -542q15 -31 -19 -31h-39q-6 0 -10.5 0.5t-7.5 0.5t-6.5 1.5t-4.5 1.5t-4 3l-4 4l-5 5t-5 6l-303 478h-6l-471 -478q-22 -22 -51 -22h-39q-39 0 -8 31z" />
<glyph unicode="_" horiz-adv-x="1044" d="M-57 -59l6 32q6 27 31 27h874q26 0 20 -27l-6 -32q-3 -27 -28 -27h-875q-14 0 -18.5 5t-3.5 22z" />
<glyph unicode="`" horiz-adv-x="526" d="M240 1427q-19 13 2 31l18 21q19 16 45 2l307 -221q14 -9 -4 -27l-10 -12q-11 -11 -33 -2z" />
<glyph unicode="a" horiz-adv-x="1083" d="M104 395l54 299q32 200 151.5 292.5t343.5 92.5q191 0 324 -59q47 -23 58 -43q6 -12 6 -33q0 -16 -3 -37l-147 -835q-3 -23 -37 -35q-210 -66 -428 -66q-194 0 -276 114q-57 79 -57 198q0 52 11 112zM190 389q-10 -51 -10 -95q0 -94 44 -154q64 -88 220 -89q188 0 365 60 l137 770q2 13 2 23q0 14 -4 21q-7 12 -39 25q-115 47 -260 47q-183 0 -277.5 -73t-123.5 -238z" />
<glyph unicode="b" horiz-adv-x="1093" d="M63 143l238 1348q3 25 29 25h41q21 0 18 -25l-88 -490q229 78 377 78q198 0 278 -104q56 -72 56 -187q0 -52 -11 -112l-53 -299q-68 -406 -499 -406q-189 0 -324 60q-47 20 -59 41q-7 12 -6 35q0 15 3 36zM156 168q-3 -13 -2 -23q0 -12 3 -19q7 -13 38 -26 q110 -49 262 -49q347 0 405 334l53 297q8 46 8 85q0 232 -268 232q-162 0 -366 -79z" />
<glyph unicode="c" horiz-adv-x="1044" d="M96 375l56 315q36 189 162 289t339 100q333 0 373 -282v-6q0 -23 -20 -29l-31 -8q-25 -9 -31 14q-19 120 -89 175.5t-214 55.5q-169 0 -271.5 -82t-129.5 -233l-58 -317q-7 -38 -7 -72q1 -99 57 -161q76 -84 241 -83q280 0 391 244q13 26 35 16l35 -12q22 -9 10 -33 q-73 -151 -189.5 -223t-293.5 -72q-209 1 -303 107q-70 79 -71 204q0 44 9 93z" />
<glyph unicode="d" horiz-adv-x="1091" d="M135 385l55 299q67 395 461 395q182 0 350 -73l86 485q3 25 29 25h41q19 0 19 -19v-6l-238 -1348q-7 -49 -26.5 -70.5t-73.5 -41.5q-160 -60 -349 -60q-364 0 -364 304q0 51 10 110zM223 381q-9 -48 -8 -90q0 -240 293 -240q152 0 285 47q36 13 45.5 24.5t15.5 45.5 l133 754q-147 75 -336 75q-319 0 -377 -321z" />
<glyph unicode="e" horiz-adv-x="1062" d="M94 383l51 279q35 198 170.5 307.5t346.5 109.5q208 1 307 -95q72 -69 71 -175q0 -40 -10 -86q-65 -274 -471 -274q-201 0 -358 36l-21 -118q-7 -42 -8 -78q0 -98 54 -159q73 -83 241 -83q245 0 389 191q17 20 39 8l25 -17q21 -12 2 -34q-163 -224 -469 -224 q-210 0 -301 109q-67 80 -67 206q0 45 9 97zM213 557q157 -39 360 -39q319 0 371 217q9 38 9 71q0 79 -54 127q-77 68 -250 68q-167 0 -278 -91.5t-140 -252.5z" />
<glyph unicode="f" horiz-adv-x="696" d="M76 991l6 35q7 23 29 23h213l10 67q41 223 143 309q101 88 322 91h18q20 0 20 -16q0 -4 -1 -9l-7 -31q-6 -24 -28 -24q-188 0 -266 -66q-78 -63 -113 -254l-10 -67h327q26 0 19 -23l-6 -35q-3 -22 -27 -22h-328l-166 -944q-6 -25 -30 -25h-39q-25 0 -19 25l166 944h-213 q-23 0 -20 22z" />
<glyph unicode="g" horiz-adv-x="1093" d="M-12 -285q-4 7 -4 13q0 15 20 24l31 15q25 12 35 -11q32 -98 98 -146t186 -48q338 0 402 358l22 139q-180 -73 -370 -73q-197 0 -279 106q-58 75 -58 195q0 48 9 104l53 287q67 401 500 401q190 0 323 -59q47 -23 58 -44q7 -12 7 -35q0 -15 -3 -34l-174 -987 q-76 -438 -500 -438q-280 0 -356 233zM168 385q-9 -49 -9 -91q0 -228 269 -228q174 0 367 75l131 742q2 13 2 23q0 13 -4 20q-6 11 -37 24q-115 47 -262 47q-178 0 -277.5 -80.5t-130.5 -248.5z" />
<glyph unicode="h" d="M41 25l260 1466q3 25 29 25h39q24 0 18 -25l-84 -483q168 71 371 71q198 0 279 -103q58 -73 57 -193q0 -49 -9 -105l-114 -653q-6 -25 -29 -25h-41q-24 0 -18 25l114 655q9 49 9 91q0 226 -271 226q-196 0 -364 -73l-158 -899q-6 -25 -29 -25h-39q-20 0 -20 20v5z" />
<glyph unicode="i" horiz-adv-x="374" d="M41 25l176 1001q7 23 29 23h41q25 0 18 -23l-176 -1001q-6 -25 -29 -25h-39q-20 0 -20 20v5zM262 1352v12q6 29 19.5 40t44.5 11h10q30 0 40 -11q6 -7 5 -20q0 -9 -2 -20l-2 -12q-5 -30 -18.5 -42t-43.5 -12h-10q-29 0 -39 12q-6 7 -6 21q0 9 2 21z" />
<glyph unicode="j" horiz-adv-x="374" d="M-383 -446l6 34q3 23 29 23q174 0 260.5 88t122.5 283l182 1044q7 23 29 23h41q25 0 18 -23l-184 -1044q-42 -233 -155 -343t-328 -110q-21 0 -21 20v5zM262 1352v12q6 29 19.5 40t44.5 11h10q30 0 40 -11q5 -7 5 -20q0 -9 -2 -20l-2 -12q-5 -30 -18.5 -42t-43.5 -12h-10 q-30 0 -39 12q-6 7 -6 21q0 9 2 21z" />
<glyph unicode="k" horiz-adv-x="1017" d="M41 25l260 1466q3 25 29 25h39q24 0 18 -25l-160 -911h250h21l432 450q19 19 51 19h37q21 0 21 -9q0 -7 -11 -18l-442 -459q118 -21 162 -162l120 -374q9 -27 -18 -27h-39q-32 0 -35 20l-110 347q-25 75 -66.5 105t-124.5 30h-262l-84 -477q-6 -25 -29 -25h-39 q-20 0 -20 20v5z" />
<glyph unicode="l" horiz-adv-x="389" d="M53 25l258 1466q3 25 29 25h41q18 0 19 -19q0 -3 -1 -6l-258 -1466q-6 -25 -28 -25h-41q-20 0 -20 16q0 4 1 9z" />
<glyph unicode="m" horiz-adv-x="1660" d="M41 25l154 874q7 46 27 69.5t69 47.5q147 63 313 63q183 0 256 -98l27 12q95 44 178 66q82 20 186 20q306 0 306 -273q0 -51 -11 -112l-119 -669q-6 -25 -28 -25h-39q-24 0 -21 25l119 669q10 54 10 97q0 85 -36 133q-56 74 -203 73q-170 0 -332 -84q19 -44 19 -111 q0 -46 -9 -104l-119 -673q-6 -25 -28 -25h-39q-27 0 -21 25l119 669q8 49 8 90q1 90 -39 140q-58 72 -206 73q-138 0 -248 -49q-50 -22 -58 -71l-147 -852q-6 -25 -29 -25h-41q-19 0 -19 16q0 4 1 9z" />
<glyph unicode="n" horiz-adv-x="1116" d="M41 25l154 874q11 48 29.5 70.5t66.5 42.5q180 67 381 67t280 -104q57 -75 57 -192q0 -49 -10 -105l-114 -653q-6 -25 -29 -25h-41q-24 0 -18 25l114 655q9 49 9 91q0 226 -271 226q-160 0 -317 -53q-47 -21 -56 -67l-147 -852q-6 -25 -29 -25h-41q-19 0 -19 16q0 4 1 9z " />
<glyph unicode="o" horiz-adv-x="1099" d="M90 332l68 389q29 166 163.5 262t335.5 96q203 -1 305 -99q80 -77 81 -195q0 -33 -7 -70l-67 -387q-29 -166 -163 -261.5t-337 -95.5q-202 0 -305 98q-80 76 -80 194q0 33 6 69zM178 330q-6 -29 -5 -56q0 -89 63 -147q83 -76 243 -76t269.5 75.5t132.5 203.5l67 391 q6 30 6 56q0 89 -64 147q-83 75 -245 75q-159 0 -267.5 -75t-131.5 -203z" />
<glyph unicode="p" horiz-adv-x="1091" d="M-39 -426l236 1333q7 49 26.5 71t73.5 42q157 59 350 59q362 0 362 -304q0 -50 -10 -109l-55 -301q-68 -394 -471 -394q-175 0 -338 88l-86 -485q-6 -25 -29 -25h-40q-20 0 -20 16q0 4 1 9zM150 141q169 -90 333 -90q316 0 375 320l53 297q8 46 8 86q0 243 -294 243 q-150 0 -283 -47q-36 -13 -46.5 -24.5t-16.5 -44.5z" />
<glyph unicode="q" horiz-adv-x="1095" d="M102 369l54 301q71 409 499 409q193 0 326 -59q45 -24 55 -44q7 -12 7 -34q0 -15 -3 -35l-233 -1333q-6 -25 -29 -25h-41q-24 0 -18 25l86 485q-210 -88 -379 -88q-198 0 -279 103q-56 70 -56 185q0 51 11 110zM188 367q-8 -47 -8 -87q0 -229 269 -229q164 0 370 90 l129 740q3 15 3 26q0 12 -3 18q-7 12 -39 25q-115 47 -262 47q-347 0 -405 -333z" />
<glyph unicode="r" horiz-adv-x="688" d="M41 25l154 876q11 48 29.5 70.5t66.5 42.5q163 62 377 65h61q22 0 22 -16q0 -4 -1 -8l-7 -33q-3 -25 -26 -25h-66q-172 0 -317 -53q-49 -21 -55 -67l-150 -852q-6 -25 -29 -25h-41q-19 0 -19 16q0 4 1 9z" />
<glyph unicode="s" horiz-adv-x="1003" d="M14 229v5q0 20 21 28l37 10q18 6 26 -14q24 -109 102.5 -159t215.5 -50q322 0 362 217q4 25 4 47q0 74 -49 108q-64 44 -237 62q-122 11 -179 27q-68 18 -96 37q-91 50 -91 171q0 32 7 70q25 140 138 215.5t303 75.5q316 0 368 -225q3 -6 3 -12q0 -14 -17 -23l-31 -12 q-21 -9 -33 12q-24 91 -93.5 135.5t-207.5 44.5q-304 0 -344 -217q-5 -26 -5 -49q0 -103 99 -139q68 -20 211 -33q161 -14 258 -69q84 -50 84 -165q0 -30 -6 -65q-52 -291 -458 -291q-340 0 -392 258z" />
<glyph unicode="t" horiz-adv-x="690" d="M74 991l4 35q7 23 28 23h222l39 223q6 22 28 22h39q24 0 21 -22l-39 -223h325q20 0 20 -14q0 -4 -1 -9l-6 -35q-3 -22 -27 -22h-326l-104 -594q-14 -76 -14 -131q0 -87 34 -125q55 -64 246 -64q25 0 19 -24l-7 -35q-3 -25 -26 -25h-15q-219 0 -292 84q-49 53 -49 167 q0 65 16 151l104 596h-219q-21 0 -21 15q0 3 1 7z" />
<glyph unicode="u" horiz-adv-x="1118" d="M162 371l114 655q7 23 29 23h41q26 0 19 -23l-115 -655q-9 -50 -9 -92q0 -228 269 -228q172 0 317 53q49 22 58 70l149 852q3 23 29 23h39q20 0 20 -14q0 -4 -2 -9l-151 -876q-11 -48 -30.5 -70.5t-68.5 -42.5q-180 -66 -381 -66q-338 0 -338 288q0 51 11 112z" />
<glyph unicode="v" horiz-adv-x="1011" d="M113 1022q-2 6 -2 10q0 17 26 17h31q21 0 26.5 -4t6.5 -21l190 -766q27 -151 29 -158h4q17 26 43 76q20 43 41 80l459 770q13 23 47 23h33q19 0 21 -5q0 -1 1 -2q0 -6 -8 -20l-604 -1006q-15 -24 -39 -24h-25q-25 0 -31 24z" />
<glyph unicode="w" horiz-adv-x="1486" d="M121 1022q-1 5 -1 9q0 9 4 13q4 5 21 5h31q35 0 35 -25l94 -723q1 -9 4.5 -43t5.5 -59q2 -58 7 -90h4q8 25 36 84q23 54 52 110l350 690q12 25 43 25h18q32 0 35 -23l105 -684q6 -39 12 -112q7 -86 8 -90h4q16 33 43 98q26 64 43 102l348 717q10 23 45 23h31q17 -1 19 -7 q1 -2 1 -3q0 -6 -6 -17l-491 -1008q-12 -24 -37 -24h-33q-25 0 -28 24l-109 740q0 1 -6 73.5t-8 83.5h-4l-72 -157l-373 -740q-12 -24 -35 -24h-30q-24 0 -27 24z" />
<glyph unicode="x" horiz-adv-x="968" d="M-45 25l485 516l-290 483q-9 25 22 25h33q31 0 37 -19l260 -428l403 428q19 19 45 19h47q20 0 20 -8q0 -6 -11 -17l-459 -485l305 -514q12 -25 -21 -25h-36q-28 0 -37 20l-273 457l-428 -457q-14 -20 -45 -20h-45q-21 0 -21 9q0 6 9 16z" />
<glyph unicode="y" d="M8 -285q-4 7 -4 13q0 15 21 24l28 15q27 12 37 -11q32 -97 100 -145.5t189 -48.5q337 0 401 358l25 133q-195 -67 -371 -67q-338 0 -338 290q0 51 10 111l113 639q7 23 29 23h41q25 0 18 -23l-112 -641q-10 -52 -10 -95q0 -91 43 -145q63 -79 229 -79q173 0 362 69 l156 891q7 23 29 23h40q20 0 20 -14q0 -4 -1 -9l-193 -1102q-76 -442 -505 -442q-284 0 -357 233z" />
<glyph unicode="z" horiz-adv-x="901" d="M-41 25l6 30q0 14 15 29l815 885h-639q-22 0 -19 24l6 33q7 23 27 23h727q20 0 20 -14q0 -4 -2 -9l-4 -33q-4 -15 -16 -30l-815 -883h655q25 0 19 -25l-4 -30q-6 -25 -27 -25h-746q-19 0 -19 16q0 4 1 9z" />
<glyph unicode="{" horiz-adv-x="620" d="M25 705l6 40q6 25 24 25h23q100 0 152 51t71 158l90 516q25 136 94 197t203 61h92q25 0 19 -24l-6 -33q-3 -25 -27 -25h-88q-89 0 -136 -43t-65 -137l-92 -522q-34 -192 -178 -244q127 -47 92 -244l-92 -520q-17 -93 15 -136.5t122 -43.5h88q24 0 21 -25l-7 -32 q-6 -25 -28 -25h-90q-136 0 -184 61t-23 197l90 514q21 112 -13 160.5t-137 48.5h-20q-19 0 -16 25z" />
<glyph unicode="|" horiz-adv-x="368" d="M-8 -276l354 2005q6 24 27 24h37q24 0 18 -24l-352 -2005q-6 -25 -29 -25h-37q-24 0 -18 25z" />
<glyph unicode="}" horiz-adv-x="620" d="M-131 -276l6 32q3 25 29 25h88q89 0 134.5 43t63.5 137l93 520q34 196 176 246q-124 53 -90 242l92 522q17 93 -14 136.5t-121 43.5h-90q-24 0 -21 25l6 33q6 24 29 24h92q134 0 181 -61t24 -197l-92 -516q-19 -107 15.5 -158t135.5 -51h21q22 0 16 -25l-8 -40 q0 -25 -25 -25h-20q-101 0 -152.5 -50.5t-70.5 -158.5l-91 -514q-25 -136 -94.5 -197t-204.5 -61h-90q-24 0 -18 25z" />
<glyph unicode="~" horiz-adv-x="1146" d="M152 606q-15 22 6 37q132 102 256 102q85 0 190 -45q109 -47 174 -47q104 0 205 82q19 14 35 -2l20 -22q16 -15 -6 -37q-131 -101 -258 -101q-85 0 -190 45q-107 46 -176 46q-100 0 -201 -82q-19 -14 -35 2z" />
<glyph unicode="&#xa2;" horiz-adv-x="1085" d="M104 379l56 313q67 362 456 383l27 150q3 24 29 24h41q23 0 20 -24l-28 -150q158 -7 236.5 -76.5t92.5 -201.5q3 -24 -18 -33l-35 -12q-25 -9 -31 16q-17 123 -86.5 177t-216.5 54q-169 0 -271.5 -82t-127.5 -231l-58 -319q-26 -149 49 -232.5t240 -83.5q145 0 238.5 59 t154.5 185q10 26 35 16l35 -12q20 -9 8 -33q-130 -275 -438 -293l-23 -120q-6 -25 -28 -25h-41q-25 0 -19 25l21 120q-184 7 -266.5 116t-51.5 290z" />
<glyph unicode="&#xa3;" horiz-adv-x="1286" d="M-10 27l8 36q0 23 20 23h43q81 4 133 66t66 153l62 346h-172q-14 0 -19 5t-4 22l6 31q6 26 31 26h172l67 381q30 170 155 268.5t333 98.5q173 0 266.5 -75.5t124.5 -244.5q3 -24 -22 -33l-37 -12q-21 -9 -31 17q-26 144 -98.5 202t-214.5 58q-162 0 -258.5 -77 t-120.5 -210l-66 -373h567q27 0 21 -26l-6 -31q-3 -27 -29 -27h-567l-62 -344q-24 -148 -141 -221v-4q203 6 240 6h614q26 0 23 -25l-9 -36q-3 -27 -28 -27h-1047q-26 0 -20 27z" />
<glyph unicode="&#xa5;" horiz-adv-x="1300" d="M186 352l7 25q3 24 26 24h340l39 222h-340q-24 0 -18 22l4 25q3 24 26 24h303l-364 733q-12 27 16 27h47q36 0 45 -22l345 -707l595 707q16 22 52 22h49q28 0 10 -27l-627 -733h301q22 0 19 -24l-4 -25q-6 -22 -27 -22h-338l-39 -222h338q22 0 19 -24l-4 -25 q-3 -22 -29 -22h-336l-53 -303q-6 -27 -31 -27h-43q-26 0 -20 27l51 303h-340q-22 0 -19 22z" />
<glyph unicode="&#xa8;" horiz-adv-x="899" d="M342 1323l2 14q6 47 53 47h15q26 0 34 -10t3 -37l-3 -14q-5 -27 -15.5 -36t-39.5 -9h-12q-27 0 -35 9.5t-2 35.5zM731 1323l2 14q9 47 58 47h10q47 0 41 -47l-4 -14q-9 -45 -56 -45h-10q-29 0 -37.5 9.5t-3.5 35.5z" />
<glyph unicode="&#xa9;" horiz-adv-x="1660" d="M168 719q56 312 305 524q248 211 559 211q309 0 484 -211q173 -209 120 -524q-56 -312 -303 -522q-251 -213 -557 -213q-308 0 -485 213q-175 211 -123 522zM229 719q-53 -285 111 -479q159 -197 444 -197q282 0 514 197q227 193 277 479q52 285 -109 481 q-159 193 -442 193q-287 0 -514 -193q-227 -191 -281 -481zM553 594l43 244q25 137 122 212.5t251 75.5q249 0 276 -208q0 -21 -16 -27l-27 -8q-22 -6 -22 12q-12 93 -61.5 130.5t-164.5 37.5q-249 0 -292 -229l-44 -246q-19 -110 36 -171t177 -61q108 0 176 43.5t109 137.5 q12 15 33 12l20 -8q18 -11 9 -25q-101 -223 -357 -223q-153 0 -223 80t-45 221z" />
<glyph unicode="&#xab;" horiz-adv-x="1128" d="M80 522q-9 16 6 31l494 422q21 15 30 0l21 -31q12 -18 -6 -33l-445 -379l309 -374q16 -19 -4 -33l-26 -21q-23 -13 -33 0zM541 522q-12 16 6 31l493 422q19 15 31 0l21 -31q12 -18 -9 -33l-442 -379l309 -374q15 -18 -6 -33l-26 -21q-23 -13 -33 0z" />
<glyph unicode="&#xad;" horiz-adv-x="872" d="M117 526l6 35q6 25 31 25h559q26 0 20 -25l-6 -35q-3 -24 -29 -24h-559q-25 0 -22 24z" />
<glyph unicode="&#xae;" horiz-adv-x="997" d="M203 1057q26 162 162 282q133 115 305 115q161 0 260 -117q94 -116 67 -280q-27 -168 -157 -283t-303 -115q-164 0 -263 117q-98 116 -71 281zM250 1057q-27 -144 59 -250q85 -105 234 -105q155 0 270 103q114 102 141 252q27 143 -57 250q-83 102 -229 102 q-163 0 -275 -100q-116 -101 -143 -252zM408 856l69 393q3 19 23 19h170q67 0 99.5 -36t21.5 -99q-18 -107 -119 -125l57 -144q9 -18 -12 -18h-17q-13 0 -20 10l-55 145h-146l-24 -145q-3 -10 -15 -10h-22q-10 0 -10 10zM487 1044h144q95 0 114 91q7 43 -14.5 65.5 t-68.5 22.5h-144z" />
<glyph unicode="&#xb4;" horiz-adv-x="526" d="M201 1235q-12 15 8 27l383 219q31 14 47 -2l14 -23q16 -22 -8 -31l-401 -211q-22 -9 -33 5z" />
<glyph unicode="&#xb8;" horiz-adv-x="514" d="M-104 -426l4 27q3 21 16 8q64 -55 158 -55q75 0 125.5 36t62.5 99q7 49 -25 75.5t-100 26.5q-48 0 -78 -12q-17 -1 -20.5 5t4.5 23l107 193h59l-92 -172q24 8 65 8q86 0 127 -40.5t27 -112.5q-18 -90 -89 -139.5t-173 -49.5t-164 47q-17 10 -14 33z" />
<glyph unicode="&#xbb;" horiz-adv-x="1134" d="M37 135q-12 16 6 31l442 377l-311 379q-9 16 8 30l29 25q22 15 31 0l348 -424q9 -16 -6 -31l-490 -416q-23 -17 -33 0zM498 135q-16 16 6 31l442 377l-311 379q-14 14 8 30l29 23q21 15 33 0l346 -422q9 -15 -7 -31l-489 -416q-18 -15 -33 0z" />
<glyph unicode="&#x2c6;" horiz-adv-x="757" d="M193 1221l313 231q33 23 53 23h12q20 0 43 -23l232 -231q15 -21 -15 -21h-32q-25 0 -39 14l-201 199l-272 -199q-14 -14 -41 -14h-43q-31 0 -10 21z" />
<glyph unicode="&#x2da;" horiz-adv-x="491" d="M203 1313q13 87 77.5 138.5t157.5 51.5q91 0 135 -53.5t27 -144.5q-13 -87 -75.5 -138t-153.5 -51q-93 0 -139 53.5t-29 143.5zM254 1309q-11 -66 22.5 -105t102.5 -39q66 0 113 39t57 105q12 66 -20.5 104.5t-98.5 38.5q-70 0 -117 -38t-59 -105z" />
<glyph unicode="&#x2dc;" horiz-adv-x="624" d="M123 1249q34 193 186 193q35 0 69 -15t62 -37t54.5 -44t55.5 -37t56 -15q97 0 121 131q3 17 18 17h29q19 0 12 -17q-34 -192 -182 -192q-41 0 -75 15t-58.5 36.5t-47.5 43.5t-52.5 37t-63.5 15q-47 0 -79.5 -34.5t-43.5 -96.5q0 -16 -18 -16h-27q-16 0 -16 16z" />
<glyph unicode="&#x401;" horiz-adv-x="1165" d="M72 27l247 1400q3 27 29 27h838q26 0 20 -27l-8 -36q-3 -25 -29 -25h-768l-102 -586h678q28 0 22 -24l-8 -37q-6 -27 -30 -27h-678l-107 -604h797q26 0 20 -25l-6 -36q-6 -27 -31 -27h-864q-26 0 -20 27zM578 1665l2 14q9 47 55 47h12q26 0 34.5 -10.5t4.5 -36.5l-4 -14 q-4 -26 -15.5 -35.5t-37.5 -9.5h-15q-26 0 -34 9.5t-2 35.5zM967 1665l2 14q9 47 57 47h12q26 0 34.5 -10.5t4.5 -36.5l-2 -14q-9 -45 -57 -45h-10q-29 0 -37.5 9.5t-3.5 35.5z" />
<glyph unicode="&#x410;" horiz-adv-x="1290" d="M-61 25l815 1415q15 24 39 24h41q24 0 30 -24l318 -1415q3 -25 -23 -25h-35q-38 0 -41 23l-102 452h-680l-260 -452q-13 -23 -51 -23h-37q-33 0 -14 25zM344 555h625l-164 727q-4 36 -4 88h-4q0 -1 -4.5 -15t-13 -35.5t-15.5 -37.5z" />
<glyph unicode="&#x411;" horiz-adv-x="1282" d="M72 25l247 1402q3 27 29 27h883q25 0 22 -27l-8 -36q-3 -25 -28 -25h-816l-96 -551h522q196 0 290 -111t59 -305q-32 -191 -159 -295t-323 -104h-602q-26 0 -20 25zM176 88h522q154 0 254.5 84t126.5 236q26 153 -44 236t-226 83h-520z" />
<glyph unicode="&#x412;" horiz-adv-x="1310" d="M72 27l247 1400q3 27 29 27h580q183 0 267.5 -97t53.5 -274q-46 -258 -270 -331v-4q119 -29 172 -128t27 -241q-35 -183 -160 -281t-318 -98h-608q-26 0 -20 27zM176 88h539q150 0 244 79t120 228q26 143 -41.5 223t-216.5 80h-536zM299 784h504q144 0 234 74t114 219 q26 141 -37 215t-209 74h-504z" />
<glyph unicode="&#x413;" horiz-adv-x="1052" d="M72 27l247 1400q3 27 29 27h787q14 0 18.5 -5t3.5 -22l-8 -36q-3 -25 -29 -25h-719l-235 -1339q-6 -27 -31 -27h-43q-26 0 -20 27z" />
<glyph unicode="&#x414;" horiz-adv-x="1437" d="M-123 -287l62 350q6 25 30 25h86q55 33 93 75t92 134q114 198 202 719l74 411q6 27 29 27h807q14 0 18.5 -5t3.5 -22l-235 -1339h139q26 0 20 -25l-61 -350q-6 -26 -31 -26h-41q-26 0 -20 26l49 287h-1174l-49 -287q-6 -26 -30 -26h-43q-27 0 -21 26zM174 88h868 l226 1278h-672l-64 -350q-76 -448 -165 -645q-88 -198 -193 -283z" />
<glyph unicode="&#x415;" horiz-adv-x="1165" d="M72 27l247 1400q3 27 29 27h838q26 0 20 -27l-8 -36q-3 -25 -29 -25h-768l-102 -586h678q28 0 22 -24l-8 -37q-6 -27 -30 -27h-678l-107 -604h797q26 0 20 -25l-6 -36q-6 -27 -31 -27h-864q-26 0 -20 27z" />
<glyph unicode="&#x416;" horiz-adv-x="1853" d="M-39 27l348 510q62 89 122 138.5t138 72.5l-340 679q-12 27 19 27h39q40 0 49 -22l323 -656q78 4 99 4h172l114 647q3 27 29 27h43q29 0 23 -27l-115 -647h172q20 0 90 -4l555 656q16 22 55 22h46q31 0 10 -27l-578 -679q127 -44 185 -211l167 -510q12 -27 -18 -27h-41 q-35 0 -45 23l-154 477q-36 108 -97 151t-189 43h-172l-119 -667q-6 -27 -31 -27h-43q-26 0 -20 27l116 667h-172q-122 0 -199.5 -44t-150.5 -150l-323 -477q-20 -23 -56 -23h-41q-31 0 -10 27z" />
<glyph unicode="&#x417;" horiz-adv-x="1251" d="M37 336q-7 23 22 33l39 12q27 9 33 -16q19 -161 114.5 -233.5t301.5 -72.5q207 0 326.5 87t146.5 249q25 143 -38.5 225t-207.5 82h-385q-26 0 -20 25l6 35q3 26 31 26h376q130 0 212 78t106 207q29 155 -53.5 238.5t-266.5 83.5q-199 0 -315.5 -69.5t-192.5 -229.5 q-13 -23 -36 -15l-35 13q-24 9 -13 34q88 183 230.5 269t376.5 86q226 0 330.5 -110.5t68.5 -303.5q-46 -245 -256 -319q230 -88 180 -363q-77 -416 -581 -416q-242 0 -360.5 89.5t-139.5 275.5z" />
<glyph unicode="&#x418;" horiz-adv-x="1419" d="M72 27l247 1400q3 27 29 27h43q29 0 23 -27l-158 -878q-44 -247 -88 -420h4q92 119 309 375l822 936q8 14 28 14h43q29 0 23 -27l-248 -1400q-6 -27 -31 -27h-43q-26 0 -20 27l162 905q40 222 83 393h-4q-76 -101 -288 -346l-840 -963q-16 -16 -33 -16h-43q-26 0 -20 27z " />
<glyph unicode="&#x419;" horiz-adv-x="1419" d="M72 27l247 1400q3 27 29 27h43q29 0 23 -27l-158 -878q-44 -247 -88 -420h4q92 119 309 375l822 936q8 14 28 14h43q29 0 23 -27l-248 -1400q-6 -27 -31 -27h-43q-26 0 -20 27l162 905q40 222 83 393h-4q-76 -101 -288 -346l-840 -963q-16 -16 -33 -16h-43q-26 0 -20 27z M610 1794q-3 20 15 23l37 10q20 6 20 -10q7 -93 58.5 -138t150.5 -45q185 0 268 185q10 16 25 10l35 -12q16 -6 6 -23q-107 -229 -344 -229q-247 0 -271 229z" />
<glyph unicode="&#x41a;" horiz-adv-x="1226" d="M72 27l247 1400q3 27 29 27h43q26 0 23 -27l-115 -647h254q41 0 51 -2l598 654q19 22 55 22h48q35 0 8 -27l-617 -669q88 -20 139 -72t83 -149l169 -510q9 -27 -20 -27h-39q-35 0 -45 23l-156 477q-36 108 -95 151t-181 43h-268l-117 -667q-6 -27 -31 -27h-43 q-26 0 -20 27z" />
<glyph unicode="&#x41b;" horiz-adv-x="1325" d="M-90 25q-6 25 20 34q62 28 87 43.5t75 57.5q50 43 74 96q130 244 201 696l84 475q3 27 28 27h803q26 0 23 -27l-248 -1400q-6 -27 -31 -27h-43q-26 0 -20 27l235 1339h-666l-73 -414q-64 -389 -150 -596q-7 -15 -22 -49.5t-21 -47.5t-17.5 -36t-22.5 -39t-25 -32 q-6 -7 -20.5 -24.5t-19 -22t-15.5 -16.5t-18 -17.5t-18.5 -14t-25.5 -16.5q-55 -33 -127 -66q-27 -15 -33 11z" />
<glyph unicode="&#x41c;" horiz-adv-x="1632" d="M72 27l247 1400q3 27 29 27h31q26 0 35 -22l379 -969l714 967q15 24 41 24h41q26 0 23 -27l-248 -1400q-6 -27 -31 -27h-41q-26 0 -20 27l168 940q28 169 73 342h-4q-94 -144 -204 -293l-480 -647q-15 -21 -37 -21h-22q-25 0 -31 21l-256 655q-48 125 -96 285h-4 q-13 -131 -49 -342l-166 -940q-6 -27 -31 -27h-41q-26 0 -20 27z" />
<glyph unicode="&#x41d;" horiz-adv-x="1394" d="M72 27l247 1400q3 27 29 27h43q26 0 23 -27l-115 -647h864l115 647q6 27 29 27h45q26 0 20 -27l-248 -1400q-3 -27 -28 -27h-45q-27 0 -21 27l117 665h-864l-117 -665q-6 -27 -31 -27h-43q-26 0 -20 27z" />
<glyph unicode="&#x41e;" horiz-adv-x="1357" d="M145 485l91 500q41 239 205 368.5t431 129.5q262 0 385 -138.5t80 -377.5l-88 -500q-41 -238 -205 -367t-428 -129t-389 137.5t-82 376.5zM240 477q-35 -199 65 -308.5t322 -109.5q219 0 356 109.5t172 308.5l88 500q35 199 -64 308.5t-319 109.5q-222 0 -358.5 -108 t-171.5 -310z" />
<glyph unicode="&#x41f;" horiz-adv-x="1380" d="M72 27l247 1400q3 27 29 27h989q26 0 23 -27l-248 -1400q-6 -27 -31 -27h-43q-26 0 -20 27l235 1339h-852l-235 -1339q-6 -27 -31 -27h-43q-26 0 -20 27z" />
<glyph unicode="&#x420;" horiz-adv-x="1265" d="M72 27l247 1400q3 27 29 27h551q209 0 310 -125t63 -334q-38 -206 -177.5 -318t-351.5 -112h-483l-94 -538q-6 -27 -31 -27h-43q-26 0 -20 27zM276 653h474q170 0 283.5 94.5t142.5 260.5q31 166 -50 262t-249 96h-476z" />
<glyph unicode="&#x421;" horiz-adv-x="1294" d="M141 481l88 502q43 239 207 369.5t428 130.5q228 0 340 -88t133 -271q6 -23 -20 -32l-35 -13q-28 -9 -31 17q-21 157 -112.5 228t-284.5 71q-221 0 -357.5 -108t-172.5 -306l-86 -502q-35 -199 62.5 -308.5t317.5 -109.5q195 0 313.5 73.5t194.5 234.5q16 25 37 16 l39 -14q21 -9 10 -35q-90 -189 -230 -277t-372 -88q-263 0 -386.5 135.5t-82.5 374.5z" />
<glyph unicode="&#x422;" horiz-adv-x="1083" d="M160 1391l8 36q3 27 29 27h985q25 0 22 -27l-8 -36q-3 -25 -29 -25h-446l-236 -1339q-6 -27 -30 -27h-43q-27 0 -21 27l236 1339h-445q-25 0 -22 25z" />
<glyph unicode="&#x423;" horiz-adv-x="1189" d="M152 1427q-9 27 18 27h43q22 0 29.5 -4t15.5 -18l320 -920l628 920q10 17 15.5 19.5t29.5 2.5h47q26 0 11 -27l-957 -1404q-16 -23 -49 -23h-49q-29 0 -8 27l266 387z" />
<glyph unicode="&#x424;" horiz-adv-x="1687" d="M158 662l28 157q43 245 209.5 378.5t433.5 133.5h142l24 148q3 26 31 26h43q27 0 21 -26l-25 -148h139q264 0 384 -140t75 -388l-29 -158q-41 -245 -207 -378.5t-434 -133.5h-141l-25 -147q-6 -27 -30 -27h-43q-26 0 -23 27l27 147h-142q-264 0 -383.5 140.5t-74.5 388.5 zM250 651q-36 -206 63 -319t320 -113h141l180 1026h-141q-221 0 -358.5 -113t-173.5 -319zM868 219h140q224 0 361 113t173 319l29 162q37 209 -59.5 320.5t-321.5 111.5h-141z" />
<glyph unicode="&#x425;" horiz-adv-x="1241" d="M-45 31l651 708l-389 691q-5 8 0 16t16 8h52q32 0 45 -22l348 -617l565 617q22 22 49 22h58q31 0 10 -24l-635 -693l401 -706q11 -12 6 -21.5t-22 -9.5h-49q-35 0 -45 23l-363 641l-581 -641q-23 -23 -54 -23h-57q-28 0 -6 31z" />
<glyph unicode="&#x426;" horiz-adv-x="1417" d="M72 27l247 1400q3 27 29 27h43q26 0 23 -27l-238 -1339h846l235 1339q6 27 29 27h45q27 0 21 -27l-236 -1339h139q24 0 21 -25l-62 -350q-6 -26 -30 -26h-41q-27 0 -21 26l52 287h-1082q-26 0 -20 27z" />
<glyph unicode="&#x427;" horiz-adv-x="1273" d="M205 1067l65 360q6 27 29 27h43q26 0 23 -27l-66 -368q-39 -218 40.5 -316t305.5 -98q220 0 422 47l129 735q6 27 29 27h45q26 0 20 -27l-248 -1400q-3 -27 -28 -27h-45q-27 0 -21 27l101 575q-190 -47 -422 -47q-266 0 -366.5 128t-55.5 384z" />
<glyph unicode="&#x428;" horiz-adv-x="1855" d="M72 27l247 1400q3 27 29 27h43q26 0 23 -27l-238 -1339h617l235 1339q6 27 31 27h43q25 0 22 -27l-237 -1339h616l236 1339q6 27 28 27h45q26 0 23 -27l-248 -1400q-6 -27 -31 -27h-1464q-26 0 -20 27z" />
<glyph unicode="&#x429;" horiz-adv-x="1898" d="M72 27l247 1400q3 27 29 27h43q26 0 23 -27l-238 -1339h617l235 1339q6 27 31 27h43q25 0 22 -27l-237 -1339h616l236 1339q6 27 28 27h45q26 0 23 -27l-238 -1339h144q23 0 20 -25l-61 -350q-6 -26 -31 -26h-41q-26 0 -20 26l49 287h-1565q-26 0 -20 27z" />
<glyph unicode="&#x42a;" horiz-adv-x="1456" d="M145 1391l9 36q3 27 28 27h400q25 0 22 -27l-98 -538h477q210 0 313.5 -124t65.5 -331q-35 -206 -173.5 -320t-350.5 -114h-555q-29 0 -23 27l238 1339h-330q-26 0 -23 25zM367 88h475q168 0 281.5 95.5t142.5 262.5q29 165 -51 260t-248 95h-475z" />
<glyph unicode="&#x42b;" horiz-adv-x="1726" d="M72 27l247 1400q3 27 29 27h43q26 0 23 -27l-97 -538h478q210 0 313 -121.5t66 -329.5q-37 -206 -178 -322t-351 -116h-553q-26 0 -20 27zM176 88h473q170 0 283.5 95.5t142.5 262.5q31 166 -49 260.5t-250 94.5h-475zM1364 27l248 1400q3 27 28 27h43q26 0 23 -27 l-248 -1400q-6 -27 -31 -27h-43q-26 0 -20 27z" />
<glyph unicode="&#x42c;" horiz-adv-x="1261" d="M72 27l247 1400q3 27 29 27h43q26 0 23 -27l-97 -538h478q210 0 313 -121.5t66 -329.5q-37 -206 -178 -322t-351 -116h-553q-26 0 -20 27zM176 88h473q170 0 283.5 95.5t142.5 262.5q31 166 -49 260.5t-250 94.5h-475z" />
<glyph unicode="&#x42d;" horiz-adv-x="1300" d="M41 336q-6 24 22 33l39 14q25 9 31 -16q19 -160 113 -234t289 -74q218 0 355 109t173 305l37 219h-670q-26 0 -20 25l6 37q3 26 30 26h670l37 203q36 196 -63 304t-320 108q-195 0 -311.5 -70t-190.5 -229q-14 -24 -37 -15l-36 13q-22 9 -11 34q88 183 229 269t369 86 q264 0 384.5 -135.5t78.5 -376.5l-88 -504q-41 -238 -205 -367t-428 -129q-232 0 -347 89.5t-136 275.5z" />
<glyph unicode="&#x42e;" horiz-adv-x="1873" d="M72 27l247 1400q3 27 29 27h43q26 0 23 -27l-115 -647h393l33 203q41 239 205.5 369.5t427.5 130.5q260 0 379.5 -136.5t77.5 -377.5l-89 -506q-41 -236 -203 -364t-425 -128t-382.5 133.5t-78.5 372.5l39 215h-393l-117 -665q-6 -27 -31 -27h-43q-26 0 -20 27zM731 475 q-35 -198 63 -307t316 -109q219 0 352 106.5t170 309.5l88 504q35 198 -61.5 307t-312.5 109q-218 0 -353.5 -109t-171.5 -307z" />
<glyph unicode="&#x42f;" horiz-adv-x="1314" d="M2 27l299 454q79 128 188 172q-160 17 -233.5 124t-44.5 280q35 191 162.5 294t324.5 103h588q29 0 23 -27l-248 -1400q-6 -27 -31 -27h-43q-26 0 -20 27l108 612h-346q-126 0 -203 -44t-147 -151l-270 -421q-20 -23 -58 -23h-39q-31 0 -10 27zM307 1047 q-26 -152 46.5 -236t226.5 -84h510l112 639h-510q-156 0 -257.5 -83t-127.5 -236z" />
<glyph unicode="&#x430;" horiz-adv-x="1083" d="M104 395l54 299q32 200 151.5 292.5t343.5 92.5q191 0 324 -59q47 -23 58 -43t3 -70l-147 -835q-3 -23 -37 -35q-210 -66 -428 -66q-193 0 -275.5 114t-46.5 310zM190 389q-30 -161 34 -249.5t220 -88.5q188 0 365 60l137 770q5 32 -2 44t-39 25q-115 47 -260 47 q-183 0 -277.5 -73t-123.5 -238z" />
<glyph unicode="&#x431;" horiz-adv-x="1126" d="M123 367l90 518q62 342 205 479t456 137h76q109 0 172 29q25 13 31 -14l6 -33q3 -20 -20 -33q-62 -33 -201 -33h-78q-273 0 -391 -112t-170 -404l-8 -51q153 182 403 182q208 0 302.5 -105t62.5 -292l-49 -279q-71 -385 -510 -385q-213 0 -311.5 105t-65.5 291zM211 362 q-29 -148 48.5 -229.5t250.5 -81.5q172 0 278 81t136 230l47 279q27 149 -49.5 230t-251.5 81q-152 0 -258 -71q-106 -74 -136 -142z" />
<glyph unicode="&#x432;" horiz-adv-x="1073" d="M53 145l133 746q18 97 113 135q139 53 326 53q200 0 290.5 -80.5t65.5 -228.5q-30 -168 -201 -221q191 -65 156 -266q-24 -153 -150.5 -232.5t-336.5 -79.5q-197 0 -330 54q-44 18 -58 45t-8 75zM144.5 125.5q8.5 -18.5 39.5 -31.5q122 -45 267 -45q351 0 395 240 q19 100 -38.5 159.5t-172.5 59.5h-428l-62 -334q-9 -30 -0.5 -48.5zM217 580h422q99 0 167.5 49t86.5 139q20 113 -50 173t-227 60q-169 0 -276 -43q-61 -28 -70 -86z" />
<glyph unicode="&#x433;" horiz-adv-x="1007" d="M45 268q35 171 162 230q64 30 126.5 43.5t160.5 21.5q80 8 141 19q47 9 108 30q115 42 136 172q19 107 -45.5 162t-221.5 55q-133 0 -217 -48t-155 -152q-14 -19 -35 -10l-31 14q-18 9 -4 35q149 239 455 239q193 0 279 -80t61 -219q-17 -88 -59 -141t-107 -90 q-55 -30 -191 -47q-60 -9 -108 -13q-158 -14 -240 -49q-110 -46 -131 -176q-19 -106 52 -161.5t235 -55.5q280 0 397 209q13 23 33 14l31 -12q22 -9 10 -33q-140 -254 -481 -254q-204 0 -295 77t-66 220z" />
<glyph unicode="&#x434;" d="M92 365l51 286q32 184 160 283.5t334 99.5q139 0 227.5 -55t112.5 -150q61 357 -96 496q-128 113 -451 113q-13 0 -16.5 4t-1.5 18l4 33q3 25 28 25q352 0 496 -123q194 -150 117 -578l-82 -461q-31 -185 -161.5 -285t-344.5 -100q-213 0 -310.5 104t-66.5 290zM178 358 q-26 -147 51.5 -227t249.5 -80q171 0 277 80t131 227l53 289q25 147 -52.5 227t-248.5 80q-173 0 -278.5 -79.5t-131.5 -229.5z" />
<glyph unicode="&#x435;" horiz-adv-x="1062" d="M94 383l51 279q35 198 170.5 307.5t346.5 109.5q208 0 307 -95.5t61 -260.5q-65 -274 -471 -274q-201 0 -358 36l-21 -118q-27 -154 46 -237t241 -83q245 0 389 191q17 20 39 8l25 -17q21 -12 2 -34q-163 -224 -469 -224q-210 0 -301 109t-58 303zM213 557 q157 -39 360 -39q319 0 371 217q32 130 -45 198t-250 68q-167 0 -278 -91.5t-140 -252.5z" />
<glyph unicode="&#x436;" horiz-adv-x="1511" d="M-31 27l254 374q84 128 191 158l-254 463q-15 27 20 27h33q33 0 43 -19l242 -450h49h182l76 446q7 23 31 23h38q26 0 19 -23l-78 -446h184h41l400 450q16 19 49 19h41q34 0 10 -27l-418 -469q94 -34 135 -152l121 -374q9 -27 -18 -27h-39q-32 0 -35 20l-110 345 q-23 72 -67.5 103.5t-125.5 31.5h-182l-84 -475q-3 -25 -29 -25h-39q-24 0 -18 25l82 475h-181q-84 0 -138.5 -31t-102.5 -104l-228 -345q-14 -20 -45 -20h-41q-29 0 -8 27z" />
<glyph unicode="&#x437;" horiz-adv-x="1024" d="M14 258q-6 23 23 33l37 10q25 8 28 -16l2 -11q47 -223 318 -223q160 0 253.5 62.5t112.5 171.5q41 215 -206 215h-236q-24 0 -18 26l4 25q3 24 28 24h230q111 0 180 52t86 147q19 99 -60 162t-221 63q-269 0 -368 -194q-16 -25 -37 -19l-33 13q-21 9 -10 35 q131 245 459 245q183 0 281.5 -83t78.5 -220q-30 -174 -203 -233v-4q171 -59 136 -265q-24 -143 -141.5 -223t-323.5 -80q-333 0 -398 279q-2 4 -2 8z" />
<glyph unicode="&#x438;" horiz-adv-x="1118" d="M162 371l114 655q7 23 29 23h41q26 0 19 -23l-115 -655q-59 -320 260 -320q172 0 317 53q49 22 58 70l149 852q3 23 29 23h39q25 0 18 -23l-151 -876q-11 -48 -30.5 -70.5t-68.5 -42.5q-180 -66 -381 -66q-398 0 -327 400z" />
<glyph unicode="&#x439;" horiz-adv-x="1118" d="M162 371l114 655q7 23 29 23h41q26 0 19 -23l-115 -655q-59 -320 260 -320q172 0 317 53q49 22 58 70l149 852q3 23 29 23h39q25 0 18 -23l-151 -876q-11 -48 -30.5 -70.5t-68.5 -42.5q-180 -66 -381 -66q-398 0 -327 400zM457 1417q-3 20 16 23l31 10q21 3 24 -10 q7 -96 59.5 -140.5t151.5 -44.5q190 0 275 187q8 13 22 10l37 -12q16 -6 6 -23q-105 -231 -344 -231q-254 0 -278 231z" />
<glyph unicode="&#x43a;" horiz-adv-x="1046" d="M41 25l176 1001q7 23 31 23h37q27 0 20 -23l-78 -446h279h22l433 450q19 19 53 19h35q39 0 8 -31l-445 -459q118 -21 162 -160l125 -372q9 -27 -20 -27h-37q-28 0 -37 20l-109 345q-25 73 -68 104t-126 31h-289l-84 -475q-6 -25 -29 -25h-39q-23 0 -20 25z" />
<glyph unicode="&#x43b;" horiz-adv-x="1095" d="M-88 25q-6 15 12 24q4 3 43.5 20.5t48.5 22.5q67 42 95 94q99 164 149 410l102 430q7 23 29 23h621q25 0 18 -23l-176 -1001q-6 -25 -29 -25h-41q-24 0 -18 25l166 942h-498l-88 -379q-60 -230 -106.5 -343t-108.5 -169q-9 -8 -17.5 -15t-15 -12.5t-15.5 -11.5t-13 -9 t-14.5 -8.5t-13.5 -7t-16 -7t-15.5 -7t-19 -8t-20.5 -8.5q-10 -4 -20 -9q-20 -9 -27 11z" />
<glyph unicode="&#x43c;" horiz-adv-x="1300" d="M41 25l176 997q6 27 33 27h26q24 0 33 -21l287 -737l541 735q16 23 34 23h39q27 0 21 -27l-176 -997q-6 -25 -31 -25h-31q-16 0 -20 5t-2 20l116 653q14 95 56 235h-4q-47 -71 -133 -190l-377 -508q-14 -20 -39 -20h-21q-22 0 -28 20l-197 498q-49 119 -72 202h-4 q-16 -157 -32 -253l-113 -637q-3 -25 -27 -25h-35q-16 0 -19 5t-1 20z" />
<glyph unicode="&#x43d;" horiz-adv-x="1136" d="M41 25l176 1001q7 23 29 23h41q25 0 18 -23l-78 -446h676l78 446q7 23 29 23h39q25 0 18 -23l-174 -1001q-6 -25 -29 -25h-41q-24 0 -18 25l82 475h-674l-84 -475q-6 -25 -29 -25h-39q-23 0 -20 25z" />
<glyph unicode="&#x43e;" horiz-adv-x="1099" d="M90 332l68 389q29 166 163.5 262t335.5 96q203 0 305.5 -98.5t73.5 -265.5l-67 -387q-29 -166 -163 -261.5t-337 -95.5q-202 0 -305 98t-74 263zM178 330q-25 -127 58 -203t243 -76t269.5 75.5t132.5 203.5l67 391q25 128 -58 203t-245 75q-159 0 -267.5 -75t-131.5 -203 z" />
<glyph unicode="&#x43f;" horiz-adv-x="1116" d="M41 25l154 874q11 48 29.5 70.5t66.5 42.5q180 67 381 67t280 -104q81 -107 47 -297l-114 -653q-6 -25 -29 -25h-41q-24 0 -18 25l114 655q59 317 -262 317q-160 0 -317 -53q-47 -21 -56 -67l-147 -852q-6 -25 -29 -25h-41q-24 0 -18 25z" />
<glyph unicode="&#x440;" horiz-adv-x="1091" d="M-39 -426l236 1333q7 49 26.5 71t73.5 42q157 59 350 59q422 0 352 -413l-55 -301q-68 -394 -471 -394q-175 0 -338 88l-86 -485q-6 -25 -29 -25h-40q-25 0 -19 25zM150 141q169 -90 333 -90q316 0 375 320l53 297q56 329 -286 329q-150 0 -283 -47q-36 -13 -46.5 -24.5 t-16.5 -44.5z" />
<glyph unicode="&#x441;" horiz-adv-x="1044" d="M96 375l56 315q36 189 162 289t339 100q333 0 373 -282q3 -28 -20 -35l-31 -8q-25 -9 -31 14q-19 120 -89 175.5t-214 55.5q-169 0 -271.5 -82t-129.5 -233l-58 -317q-26 -149 49.5 -232.5t241.5 -83.5q280 0 391 244q13 26 35 16l35 -12q22 -9 10 -33 q-73 -151 -189.5 -223t-293.5 -72q-209 0 -303.5 106.5t-61.5 297.5z" />
<glyph unicode="&#x442;" horiz-adv-x="1660" d="M41 25l154 874q7 46 27 69.5t69 47.5q147 63 313 63q183 0 256 -98l27 12q95 44 178 66q82 20 186 20q363 0 295 -385l-119 -669q-6 -25 -28 -25h-39q-24 0 -21 25l119 669q29 156 -26.5 229.5t-202.5 73.5q-170 0 -332 -84q32 -74 10 -215l-119 -673q-6 -25 -28 -25h-39 q-27 0 -21 25l119 669q26 158 -31.5 230.5t-205.5 72.5q-138 0 -248 -49q-50 -22 -58 -71l-147 -852q-6 -25 -29 -25h-41q-24 0 -18 25z" />
<glyph unicode="&#x443;" d="M8 -285q-12 24 17 37l28 15q27 12 37 -11q32 -97 100 -145.5t189 -48.5q337 0 401 358l25 133q-195 -67 -371 -67q-398 0 -328 401l113 639q7 23 29 23h41q25 0 18 -23l-112 -641q-30 -161 33 -240t229 -79q173 0 362 69l156 891q7 23 29 23h40q26 0 19 -23l-193 -1102 q-76 -442 -505 -442q-284 0 -357 233z" />
<glyph unicode="&#x444;" horiz-adv-x="1507" d="M84 393l47 266q17 98 56 173t88 120.5t112.5 74.5t123.5 40t126 12q61 0 172 -12l76 424q3 25 28 25h39q24 0 21 -25l-76 -424q88 9 172 12q47 0 89 -5.5t84 -19t74.5 -35.5t60 -54t41 -76.5t18.5 -102t-9 -129.5l-49 -282q-71 -404 -504 -404q-100 3 -167 13l-72 -410 q-6 -25 -29 -25h-41q-24 0 -18 25l71 410q-66 -10 -174 -13q-167 0 -278 84q-59 43 -80.5 130t-1.5 208zM172 387q-58 -334 289 -334q64 0 174 10l162 924q-105 10 -170 10q-48 0 -94.5 -8.5t-98.5 -32t-93.5 -60.5t-75 -101t-48.5 -146zM719 63q102 -10 166 -10 q348 0 407 332l49 279q58 333 -290 333q-60 0 -170 -10z" />
<glyph unicode="&#x445;" horiz-adv-x="968" d="M-45 25l485 516l-290 483q-9 25 22 25h33q31 0 37 -19l260 -428l403 428q19 19 45 19h47q34 0 9 -25l-459 -485l305 -514q12 -25 -21 -25h-36q-28 0 -37 20l-273 457l-428 -457q-14 -20 -45 -20h-45q-34 0 -12 25z" />
<glyph unicode="&#x446;" horiz-adv-x="1165" d="M125 371l115 655q7 23 28 23h41q26 0 19 -23l-115 -657q-29 -161 35 -239.5t227 -78.5q134 0 268 39q88 20 93 21l161 915q3 23 29 23h39q25 0 18 -23l-159 -909q81 11 118.5 -29t24.5 -131l-39 -217q-6 -25 -24 -25h-37q-29 0 -23 25l37 209q17 105 -92 94 q-26 -4 -107 -24.5t-168 -35.5t-161 -12q-198 0 -279.5 103t-48.5 297z" />
<glyph unicode="&#x447;" horiz-adv-x="1026" d="M127 764l47 262q7 23 29 23h39q27 0 20 -23l-49 -270q-26 -152 39.5 -216.5t243.5 -64.5q135 0 315 53l88 498q7 23 29 23h41q25 0 18 -23l-176 -1001q-6 -25 -29 -25h-39q-24 0 -18 25l74 419q-180 -49 -326 -49q-210 0 -294 91t-52 278z" />
<glyph unicode="&#x448;" horiz-adv-x="1650" d="M158 362l116 664q7 23 29 23h41q25 0 18 -23l-118 -672q-29 -155 27 -229t202 -74q153 0 324 80q-34 76 -13 219l121 676q3 23 29 23h39q25 0 18 -23l-119 -676q-53 -299 240 -299q136 0 246 49q47 21 59 80l148 846q7 23 28 23h41q26 0 19 -23l-154 -876 q-11 -49 -29.5 -74.5t-64.5 -44.5q-148 -60 -318 -60q-179 0 -253 95q-173 -95 -383 -95q-361 0 -293 391z" />
<glyph unicode="&#x449;" horiz-adv-x="1697" d="M158 362l116 664q7 23 29 23h41q25 0 18 -23l-118 -672q-29 -155 27 -229t202 -74q153 0 324 80q-34 76 -13 219l121 676q3 23 29 23h39q25 0 18 -23l-119 -676q-53 -299 240 -299q101 0 207 35q17 6 46 15t38 12l162 913q7 23 28 23h41q26 0 19 -23l-160 -907 q81 11 118.5 -30t24.5 -132l-37 -217q-6 -25 -24 -25h-39q-26 0 -20 25l36 209q13 105 -92 94q-23 -5 -147 -37q-134 -35 -226 -35q-179 0 -253 95q-173 -95 -383 -95q-361 0 -293 391z" />
<glyph unicode="&#x44a;" horiz-adv-x="1224" d="M86 993l4 33q7 23 29 23h354q26 0 19 -23l-66 -373q198 68 362 68q189 0 277 -99t57 -278q-32 -191 -150.5 -282t-330.5 -91q-202 0 -330 58q-47 20 -59 42t-4 72l147 826h-289q-26 0 -20 24zM340 168q-6 -31 1 -44t38 -26q112 -47 264 -47q174 0 269.5 73t121.5 228 q25 140 -43.5 216.5t-220.5 76.5q-163 0 -358 -72z" />
<glyph unicode="&#x44b;" horiz-adv-x="1398" d="M61 143l158 883q7 23 29 23h37q27 0 20 -23l-65 -373q198 68 360 68q191 0 279.5 -99t56.5 -276q-32 -191 -150.5 -283t-330.5 -92q-202 0 -330 58q-47 20 -59.5 42t-4.5 72zM154 168q-5 -33 2 -45t37 -25q112 -47 266 -47q172 0 267 73t124 228q25 141 -44.5 217 t-221.5 76q-166 0 -357 -72zM1071 25l176 1001q7 23 29 23h39q27 0 20 -23l-176 -1001q-6 -25 -29 -25h-40q-25 0 -19 25z" />
<glyph unicode="&#x44c;" horiz-adv-x="1036" d="M61 143l158 883q7 23 29 23h37q27 0 20 -23l-65 -373q198 68 360 68q191 0 279.5 -99t56.5 -276q-32 -191 -150.5 -283t-330.5 -92q-202 0 -330 58q-47 20 -59.5 42t-4.5 72zM154 168q-5 -33 2 -45t37 -25q112 -47 266 -47q172 0 267 73t124 228q25 141 -44.5 217 t-221.5 76q-166 0 -357 -72z" />
<glyph unicode="&#x44d;" horiz-adv-x="1040" d="M16 268q-3 21 21 33l39 10q21 9 30 -16q14 -125 87 -184.5t215 -59.5q164 0 268.5 83.5t130.5 232.5l22 129l-471 2q-24 0 -18 22l6 33q3 25 27 25h471l18 108q29 150 -44.5 231.5t-242.5 81.5q-148 0 -235.5 -53t-144.5 -176q-16 -26 -35 -16l-35 12q-20 8 -8 35 q68 141 178.5 209.5t288.5 68.5q211 0 304 -106.5t60 -298.5l-55 -314q-32 -189 -159 -289t-337 -100q-347 0 -381 297z" />
<glyph unicode="&#x44e;" horiz-adv-x="1513" d="M41 25l176 1001q7 23 29 23h41q25 0 18 -23l-80 -453h312l26 156q29 164 160 257t330 93q197 0 297 -100t71 -266l-71 -398q-29 -164 -157.5 -254t-330.5 -90q-197 0 -296.5 96t-73.5 261l28 164h-309l-82 -467q-6 -25 -29 -25h-39q-23 0 -20 25zM578 322 q-20 -127 59 -199t235 -72q159 0 265.5 73t126.5 200l71 401q23 127 -56.5 200.5t-238.5 73.5q-156 0 -262 -75t-129 -203z" />
<glyph unicode="&#x44f;" horiz-adv-x="1048" d="M6 29l330 381q-113 17 -167.5 104t-31.5 217q26 151 130 234.5t259 83.5h455q24 0 18 -25l-174 -999q-6 -25 -28 -25h-41q-25 0 -19 25l66 372h-375l-324 -377q-14 -20 -49 -20h-37q-38 0 -12 29zM227 721q-20 -113 33 -178.5t168 -65.5h389l88 494h-383q-116 0 -194 -66 t-101 -184z" />
<glyph unicode="&#x451;" horiz-adv-x="1062" d="M94 383l51 279q35 198 170.5 307.5t346.5 109.5q208 0 307 -95.5t61 -260.5q-65 -274 -471 -274q-201 0 -358 36l-21 -118q-27 -154 46 -237t241 -83q245 0 389 191q17 20 39 8l25 -17q21 -12 2 -34q-163 -224 -469 -224q-210 0 -301 109t-58 303zM213 557 q157 -39 360 -39q319 0 371 217q32 130 -45 198t-250 68q-167 0 -278 -91.5t-140 -252.5zM457 1325l2 14q9 47 55 47h12q26 0 34.5 -10.5t4.5 -36.5l-4 -14q-4 -26 -15.5 -35.5t-37.5 -9.5h-14q-27 0 -35 9.5t-2 35.5zM846 1325l2 14q9 47 57 47h13q26 0 34.5 -10.5 t3.5 -36.5l-2 -14q-9 -45 -57 -45h-10q-29 0 -37.5 9.5t-3.5 35.5z" />
<glyph unicode="&#x2000;" horiz-adv-x="915" />
<glyph unicode="&#x2001;" horiz-adv-x="1830" />
<glyph unicode="&#x2002;" horiz-adv-x="915" />
<glyph unicode="&#x2003;" horiz-adv-x="1830" />
<glyph unicode="&#x2004;" horiz-adv-x="610" />
<glyph unicode="&#x2005;" horiz-adv-x="457" />
<glyph unicode="&#x2006;" horiz-adv-x="305" />
<glyph unicode="&#x2007;" horiz-adv-x="305" />
<glyph unicode="&#x2008;" horiz-adv-x="228" />
<glyph unicode="&#x2009;" horiz-adv-x="366" />
<glyph unicode="&#x200a;" horiz-adv-x="101" />
<glyph unicode="&#x2010;" horiz-adv-x="872" d="M117 526l6 35q6 25 31 25h559q26 0 20 -25l-6 -35q-3 -24 -29 -24h-559q-25 0 -22 24z" />
<glyph unicode="&#x2011;" horiz-adv-x="872" d="M117 526l6 35q6 25 31 25h559q26 0 20 -25l-6 -35q-3 -24 -29 -24h-559q-25 0 -22 24z" />
<glyph unicode="&#x2012;" horiz-adv-x="872" d="M117 526l6 35q6 25 31 25h559q26 0 20 -25l-6 -35q-3 -24 -29 -24h-559q-25 0 -22 24z" />
<glyph unicode="&#x2013;" horiz-adv-x="1185" d="M119 530l6 35q6 25 31 25h874q27 0 21 -25l-7 -35q-6 -24 -28 -24h-875q-28 0 -22 24z" />
<glyph unicode="&#x2014;" horiz-adv-x="1593" d="M115 530l8 35q3 25 31 25h1282q25 0 22 -25l-8 -35q-3 -24 -29 -24h-1284q-25 0 -22 24z" />
<glyph unicode="&#x2018;" horiz-adv-x="378" d="M213 1114l152 316q9 24 30 24h19q19 0 16 -18l-119 -322q-9 -31 -39 -31h-34q-37 0 -25 31z" />
<glyph unicode="&#x2019;" horiz-adv-x="372" d="M209 1102l119 321q9 31 39 31h32q41 0 25 -31l-150 -315q-9 -25 -30 -25h-19q-19 0 -16 19z" />
<glyph unicode="&#x201a;" horiz-adv-x="307" d="M-23 -213l78 414q6 24 27 24h41q26 0 20 -24l-94 -414q-3 -25 -26 -25h-23q-26 0 -23 25z" />
<glyph unicode="&#x201c;" horiz-adv-x="593" d="M213 1114l152 316q9 24 30 24h19q19 0 16 -18l-119 -322q-9 -31 -39 -31h-34q-37 0 -25 31zM428 1114l152 316q9 24 28 24h19q21 0 18 -18l-119 -322q-9 -31 -39 -31h-34q-37 0 -25 31z" />
<glyph unicode="&#x201d;" horiz-adv-x="587" d="M209 1102l119 321q9 31 39 31h32q41 0 25 -31l-150 -315q-9 -25 -30 -25h-19q-19 0 -16 19zM424 1102l119 321q9 31 39 31h32q40 0 25 -31l-150 -315q-9 -25 -30 -25h-19q-19 0 -16 19z" />
<glyph unicode="&#x201e;" horiz-adv-x="540" d="M-78 -229l119 321q9 31 39 31h33q39 0 24 -31l-149 -317q-10 -23 -31 -23h-18q-20 0 -17 19zM137 -229l119 321q9 31 37 31h35q40 0 24 -31l-151 -317q-7 -23 -29 -23h-18q-20 0 -17 19z" />
<glyph unicode="&#x2022;" horiz-adv-x="561" d="M174 539q7 44 41.5 73t77.5 29q44 0 67 -28.5t15 -73.5q-6 -43 -40.5 -73t-78.5 -30q-42 0 -66 30t-16 73z" />
<glyph unicode="&#x2026;" horiz-adv-x="1136" d="M23 45l4 12q4 32 18.5 44t46.5 12h10q32 0 41.5 -12t3.5 -44l-2 -12q-9 -55 -67 -55h-10q-31 0 -41 11.5t-4 43.5zM426 45l2 12q6 32 21 44t47 12h10q32 0 41.5 -12t3.5 -44l-2 -12q-9 -55 -68 -55h-10q-33 0 -42.5 11.5t-2.5 43.5zM827 45l4 12q4 31 19.5 43.5 t46.5 12.5h10q32 0 41.5 -12t3.5 -44l-2 -12q-9 -55 -67 -55h-11q-31 0 -41 11.5t-4 43.5z" />
<glyph unicode="&#x202f;" horiz-adv-x="366" />
<glyph unicode="&#x2039;" horiz-adv-x="671" d="M84 522q-12 15 4 31l492 420q17 15 32 0l23 -27q15 -15 -8 -31l-443 -378l310 -377q15 -15 -7 -31l-26 -25q-18 -15 -33 0z" />
<glyph unicode="&#x203a;" horiz-adv-x="675" d="M39 139q-16 16 6 31l444 377l-311 379q-9 16 8 30l29 21q22 15 31 0l348 -424q9 -16 -6 -31l-490 -418q-22 -16 -32 0z" />
<glyph unicode="&#x205f;" horiz-adv-x="457" />
<glyph unicode="&#x20ac;" horiz-adv-x="1480" d="M68 551l12 27q16 22 37 22h200l41 234h-145q-25 0 -16 24l14 27q13 22 33 22h125l16 90q43 234 208.5 361t430.5 127q193 0 297.5 -62t146.5 -192q16 -28 -16 -41l-29 -10q-30 -12 -39 12q-64 205 -376 205q-218 0 -355.5 -106t-169.5 -296l-16 -88h692q28 0 15 -22 l-15 -29q-9 -22 -35 -22h-671l-43 -234h606q28 0 12 -22l-12 -29q-16 -23 -37 -23h-580l-12 -67q-32 -190 68.5 -296t316.5 -106q325 0 459 224q21 27 45 12l29 -14q26 -15 4 -43q-167 -267 -553 -267q-262 0 -384 129t-81 361l12 67h-221q-23 0 -14 25z" />
<glyph unicode="&#x2122;" horiz-adv-x="1269" d="M211 1371q-2 3 0 15l4 17q1 13 5 16.5t16 3.5h426q12 0 14.5 -3.5t1.5 -16.5l-4 -17q-3 -18 -23 -18h-182l-78 -442q-3 -19 -26 -19h-15q-22 0 -16 19l76 442h-185q-12 0 -14 3zM647 926l84 477q3 20 27 20h8q17 0 20 -12l152 -315l262 313q8 14 27 14h14q11 0 14 -3 t2 -15l-86 -479q-3 -19 -22 -19h-19q-19 0 -16 19l49 280q12 60 23 109q-4 -4 -27.5 -34.5t-32.5 -39.5l-168 -201q-9 -12 -26 -12h-8q-14 0 -21 10l-96 197q-27 63 -35 78l-18 -107l-49 -280q-2 -9 -3.5 -12t-6 -5t-13.5 -2h-18q-23 0 -17 19z" />
<glyph unicode="&#x25fc;" horiz-adv-x="1044" d="M0 0v1044h1044v-1044h-1044z" />
</font>
</defs>
</svg>
